<svg xmlns="http://www.w3.org/2000/svg" viewBox="0 0 159.705 159.705" style="enable-background:new 0 0 159.705 159.705" xml:space="preserve"><circle style="fill:#a3dce2" cx="79.853" cy="79.852" r="79.853"/><path style="fill:#f0f0f0" d="M120.438 67.047c-1.53-14.711-13.965-26.182-29.081-26.182-2.813 0-5.531.406-8.106 1.148 11.244 3.251 19.699 13.07 20.943 25.033 6.231 2.43 10.649 8.23 10.649 15.322 0 9.233-7.486 16.463-16.719 16.463h16.241c9.233 0 16.719-7.229 16.719-16.463.001-7.091-4.417-12.891-10.646-15.321z"/><path style="fill:#fff" d="M114.844 82.369c0-7.092-4.418-13.021-10.649-15.451-1.244-11.962-9.699-21.717-20.943-24.969-5.203 1.5-9.813 4.434-13.389 8.309a19.008 19.008 0 0 0-6.928-1.287c-9.83 0-17.919 7.438-18.971 16.986-8.589.7-15.344 7.637-15.344 16.408 0 9.232 7.485 16.467 16.719 16.467h52.786c9.232 0 16.719-7.229 16.719-16.463zM112.049 114.717a5.521 5.521 0 0 1-11.043 0c0-3.05 5.522-8.621 5.522-8.621s5.521 5.571 5.521 8.621"/><path style="fill:#f7f7f7" d="M106.527 106.096v14.143a5.521 5.521 0 0 0 5.521-5.521c.001-3.051-5.521-8.622-5.521-8.622"/><path style="fill:#fff" d="M86.975 114.717a5.521 5.521 0 0 1-11.042 0c0-3.05 5.521-8.621 5.521-8.621s5.521 5.571 5.521 8.621"/><path style="fill:#f7f7f7" d="M81.453 106.096v14.143a5.521 5.521 0 0 0 5.521-5.521c.001-3.051-5.521-8.622-5.521-8.622"/><path style="fill:#fff" d="M61.9 114.717a5.521 5.521 0 0 1-11.042 0c0-3.05 5.521-8.621 5.521-8.621s5.521 5.571 5.521 8.621"/><path style="fill:#f7f7f7" d="M56.379 106.096v14.143a5.521 5.521 0 0 0 5.521-5.521c0-3.051-5.521-8.622-5.521-8.622"/></svg>